<svg xmlns="http://www.w3.org/2000/svg" xmlns:xlink="http://www.w3.org/1999/xlink" xmlns:fi="http://pattern.flaticon.com/" x="0" y="0" width="700" height="350" viewBox="0 0 700 350"><rect x="0px" y="0px" width="100%" height="100%" opacity="0" fill="#ffffff"/><defs><g transform="matrix(0.10388800501823425 0 0 0.10388800501823425 152 74)" id="L1_280"><path d="M171.322,577.545c35.125,0,68.149-13.679,92.987-38.514c0.376-0.379,5.205-6.854,5.523-7.282l253.49-343.317    c2.702-3.657,2.8-8.62,0.245-12.381s-7.2-5.499-11.601-4.336l-78.96,20.9L536.192,16.114c2.645-4.523,1.629-10.294-2.398-13.642    c-4.03-3.345-9.887-3.292-13.853,0.135L302.947,190.252l14.725-39.088c1.766-4.682,0.049-9.963-4.131-12.717    s-9.709-2.243-13.317,1.224L78.34,353.06c-51.27,51.271-51.27,134.698,0,185.972C103.175,563.866,136.199,577.545,171.322,577.545    z M171.325,344.847c55.799,0,101.194,45.396,101.194,101.197c0,55.803-45.396,101.197-101.194,101.197    c-55.799,0-101.197-45.395-101.197-101.197C70.127,390.242,115.522,344.847,171.325,344.847z"/><path d="M110.44,434.172c0-4.251,0.587-8.354,1.588-12.299c4.507-17.784,18.501-31.781,36.286-36.285    c3.944-1.001,8.048-1.588,12.298-1.588c5.915,0,10.71-4.795,10.71-10.71s-4.795-10.71-10.71-10.71    c-39.474,0-71.592,32.117-71.592,71.592c0,5.914,4.795,10.71,10.71,10.71S110.44,440.086,110.44,434.172z"/></g><g transform="matrix(0.11741682887077332 0 0 0.11741682887077332 0 201)" id="L1_281"><path d="M423.5,168c-2.298,0-4.548,0.041-6.764,0.11c-0.403-0.067-0.814-0.11-1.236-0.11h-208c-4.142,0-7.5,3.358-7.5,7.5   s3.358,7.5,7.5,7.5h147.295C324.163,199.797,312,228.248,312,255.5c0,25.346,9.557,46.881,27.637,62.278   c4.524,3.852,9.522,7.247,14.944,10.222H207.5c-4.142,0-7.5,3.358-7.5,7.5s3.358,7.5,7.5,7.5h208c0.411,0,0.812-0.042,1.205-0.106   c2.234,0.069,4.497,0.106,6.795,0.106c48.248,0,87.5-39.252,87.5-87.5S471.748,168,423.5,168z M423.5,328   c-31.876,0-57.512-7.483-74.137-21.642C334.733,293.9,327,276.313,327,255.5c0-45.397,36.075-72.5,96.5-72.5   c39.977,0,72.5,32.523,72.5,72.5S463.477,328,423.5,328z"/><path d="M167.5,183h7.997c4.142,0,7.5-3.358,7.5-7.5s-3.358-7.5-7.5-7.5H167.5c-4.142,0-7.5,3.358-7.5,7.5S163.358,183,167.5,183z"/><path d="M175.497,328H167.5c-4.142,0-7.5,3.358-7.5,7.5s3.358,7.5,7.5,7.5h7.997c4.142,0,7.5-3.358,7.5-7.5   S179.639,328,175.497,328z"/><path d="M295,255.5c0-4.142-3.358-7.5-7.5-7.5H7.5c-4.142,0-7.5,3.358-7.5,7.5s3.358,7.5,7.5,7.5h280   C291.642,263,295,259.642,295,255.5z"/><path d="M87.5,223h16.003c4.142,0,7.5-3.358,7.5-7.5s-3.358-7.5-7.5-7.5H87.5c-4.142,0-7.5,3.358-7.5,7.5S83.358,223,87.5,223z"/><path d="M135.498,223H303.5c4.142,0,7.5-3.358,7.5-7.5s-3.358-7.5-7.5-7.5H135.498c-4.142,0-7.5,3.358-7.5,7.5   S131.355,223,135.498,223z"/><path d="M103.503,288H87.5c-4.142,0-7.5,3.358-7.5,7.5s3.358,7.5,7.5,7.5h16.003c4.142,0,7.5-3.358,7.5-7.5   S107.646,288,103.503,288z"/><path d="M311,295.5c0-4.142-3.358-7.5-7.5-7.5H135.498c-4.142,0-7.5,3.358-7.5,7.5s3.358,7.5,7.5,7.5H303.5   C307.642,303,311,299.642,311,295.5z"/><path d="M423.5,200c-4.142,0-7.5,3.358-7.5,7.5s3.358,7.5,7.5,7.5c22.332,0,40.5,18.168,40.5,40.5c0,4.142,3.358,7.5,7.5,7.5   s7.5-3.358,7.5-7.5C479,224.897,454.103,200,423.5,200z"/></g><g transform="matrix(0.17299741506576538 0 0 0.17299741506576538 234.00000413909856 212)" id="L1_282"><path d="M131.442,312.714c46.871,0,85.003-38.132,85.003-85.002s-38.132-85.001-85.003-85.001   c-46.87,0-85.001,38.131-85.001,85.001S84.572,312.714,131.442,312.714z M131.442,157.71c38.6,0,70.003,31.402,70.003,70.001   c0,38.599-31.403,70.002-70.003,70.002c-15.688,0-29.382-4.594-41.067-13.344c-0.763-0.515-0.223-0.921,0.061-1.097   c4.741-2.939,7.905-8.188,7.905-14.164c0-9.184-7.472-16.655-16.656-16.655c-4.789,0-9.106,2.037-12.146,5.285   c-0.292,0.311-0.801,0.992-1.142,0.349c-1.545-3.116-2.546-5.747-3.637-9.098c-0.356-1.093,0.323-0.907,0.657-0.831   c1.485,0.339,3.025,0.529,4.612,0.529c11.629,0,21.089-9.46,21.089-21.089c0-11.628-9.46-21.088-21.089-21.088   c-0.941,0-1.883-0.015-2.774,0.193c-2.434,0.567-2.085-1.553-1.71-2.597C75.251,177.088,101.122,157.71,131.442,157.71z"/><path d="M132.072,250.159c-10.006,0-18.146,8.141-18.146,18.148c0,10.006,8.141,18.147,18.146,18.147   c10.008,0,18.149-8.141,18.149-18.147C150.221,258.3,142.079,250.159,132.072,250.159z"/><path d="M169.365,259.009c7.099,0,12.873-5.774,12.873-12.872c0-7.098-5.774-12.872-12.873-12.872   c-7.098,0-12.872,5.774-12.872,12.872C156.493,253.235,162.267,259.009,169.365,259.009z"/><path d="M123.715,234.191c7.165,0,12.994-5.83,12.994-12.995c0-7.165-5.829-12.995-12.994-12.995   c-7.166,0-12.995,5.83-12.995,12.995C110.72,228.361,116.549,234.191,123.715,234.191z"/><path d="M145.82,198.225c5.121,0,9.287-4.167,9.287-9.289c0-5.121-4.166-9.288-9.287-9.288c-5.122,0-9.289,4.167-9.289,9.288   C136.531,194.058,140.698,198.225,145.82,198.225z"/><path d="M205.462,300.928c-19.709,19.925-45.996,30.897-74.021,30.897c-57.408,0-104.112-46.706-104.112-104.114   c0-22.962,7.326-44.733,21.186-62.96c2.508-3.297,1.867-8.003-1.43-10.51c-3.3-2.508-8.003-1.866-10.51,1.431   c-15.862,20.859-24.246,45.77-24.246,72.039c0,65.68,53.434,119.114,119.112,119.114c32.063,0,62.138-12.554,84.686-35.349   c2.913-2.945,2.887-7.693-0.058-10.606C213.124,297.958,208.375,297.983,205.462,300.928z"/><path d="M332.781,138.58c-4.071-5.276-11.466-3.601-21.466-0.659c-7.419,2.183-16.795,5.442-25.862,8.594   c-3.677,1.278-7.81,2.715-11.807,4.065c-1.038,0.351-2.409,0.274-0.95-1.711c5.706-7.415,11.043-13.841,16.836-20.956   c6.479-7.958,12.6-15.475,17.117-21.375c6.535-8.536,10.479-13.688,7.141-19.136c-3.449-5.62-10.429-3.92-15.523-2.68   c-4.292,1.044-9.789,2.665-15.608,4.381c-3.865,1.14-8.878,2.618-13.58,3.889c-1.196,0.324-3.111,0.716-1.373-2.355   c4.969-7.749,10.404-15.321,16.521-24.09c7.238-10.377,14.725-21.107,20.088-29.51c7.456-11.68,11.754-19.121,6.397-24.666   c-5.232-5.418-12.767-0.938-17.267,1.737c-4.303,2.558-10.055,6.449-17.585,11.897c-13.635,9.864-30.413,22.878-46.639,35.463   c-8.684,6.734-18.421,14.288-26.525,20.402c-0.923,0.697-2.542,0.9-1.464-1.367c2.52-6.97,4.335-11.613,6.932-18.45   c4.584-12.066,9.324-24.544,12.609-34.373c4.904-14.673,6.582-22.032,0.808-26.112c-5.842-4.128-11.748-0.066-25.92,11.726   c-8.567,7.128-20.229,17.456-34.659,30.699c-24.128,22.14-52.851,49.579-69.327,65.704c-2.96,2.897-3.012,7.646-0.114,10.606   c2.897,2.96,7.644,3.012,10.606,0.115c33.477-32.763,77.352-74.211,100.39-93.363c2.723-2.533,2.697-0.34,2.195,1.083   c-3.249,9.214-7.354,20.018-10.609,28.59c-3.991,10.504-7.76,20.426-10.396,28.125c-3.917,11.438-5.732,17.596-0.838,21.672   c4.76,3.969,10.137,0.513,13.348-1.551c2.537-1.631,6.01-4.081,10.615-7.488c8.439-6.244,19.662-14.948,31.544-24.164   c14.607-11.329,29.3-22.94,43.613-33.255c4.043-2.794,2.41-0.199,1.351,1.353c-3.903,5.721-7.988,11.577-11.455,16.547   c-6.921,9.921-13.458,19.292-18.279,26.776c-6.833,10.606-10.504,16.869-6.494,22.233c4.8,6.422,13.963,4.119,39.75-3.483   c1.273-0.375,0.431-0.131,1.815-0.535c2.376-0.748,1.163,0.664,0.631,1.331c-3.735,4.684-7.86,9.75-11.446,14.155   c-7.351,9.028-14.951,18.363-20.595,25.825c-8.813,11.651-12.083,16.933-8.871,22.334c3.756,6.314,11.714,3.928,19.412,1.619   c6.226-1.868,14.146-4.621,22.532-7.536c7.145-2.484,12.712-4.545,19.99-6.771c3.535-1.266,2.723,0.422,2.182,1.266   c-14.059,21.905-45.506,64.563-63.804,84.728c-2.783,3.068-2.553,7.811,0.515,10.594c1.436,1.304,3.24,1.946,5.038,1.946   c2.041,0,4.076-0.829,5.557-2.46c11.126-12.262,29.931-36.27,46.792-59.739c8.251-11.485,15.114-21.558,19.848-29.131   C333.698,149.592,336.665,143.613,332.781,138.58z"/></g><g transform="matrix(0.11718658357858658 0 0 0.11718658357858658 80 316.99999447826895)" id="L1_283"><rect x="175px" y="109px" width="33px" height="166px" transform="matrix(0.7071 -0.7071 0.7071 0.7071 -79.6302 192.2669)"/><rect x="84px" y="94px" width="33px" height="253px" transform="matrix(0.7071 -0.7071 0.7071 0.7071 -126.5797 136.6322)"/><rect x="204px" y="-25px" width="33px" height="253px" transform="matrix(0.7071 -0.7071 0.7071 0.7071 -7.1031 186.1245)"/><path d="M473.82,289.179c-11.785-11.786-25.285-20.837-39.7-27.166c0.484,2.684,0.751,5.443,0.751,8.265    c0,25.607-20.833,46.441-46.44,46.441c-25.607,0-46.44-20.834-46.44-46.441c0-4.82,0.74-9.472,2.11-13.848    c-20.119,5.979-39.071,16.893-54.924,32.749c-19.972,19.972-32.105,44.857-36.406,70.801c4.493-1.152,9.199-1.767,14.047-1.767    c31.203,0,56.589,25.386,56.589,56.59c0,25.116-16.454,46.454-39.145,53.825c1.583,1.765,3.218,3.499,4.914,5.195    c25.452,25.453,58.888,38.18,92.323,38.18s66.869-12.726,92.323-38.18C524.727,422.917,524.727,340.086,473.82,289.179z     M437.161,419.612c-6.15,6.149-14.23,9.224-22.307,9.224s-16.156-3.075-22.305-9.224c-12.3-12.3-12.3-32.312,0-44.613    c12.299-12.299,32.312-12.301,44.613-0.001V375C449.46,387.3,449.46,407.312,437.161,419.612z"/></g></defs><g fi:class="KUsePattern"><pattern id="pattern_L1_280" width="350" height="350" patternUnits="userSpaceOnUse"><use xlink:href="#L1_280" x="-350" y="-350"/><use xlink:href="#L1_280" x="0" y="-350"/><use xlink:href="#L1_280" x="350" y="-350"/><use xlink:href="#L1_280" x="-350" y="0"/><use xlink:href="#L1_280" x="0" y="0"/><use xlink:href="#L1_280" x="350" y="0"/><use xlink:href="#L1_280" x="-350" y="350"/><use xlink:href="#L1_280" x="0" y="350"/><use xlink:href="#L1_280" x="350" y="350"/></pattern><rect x="0" y="0" width="100%" height="100%" fill="url(#pattern_L1_280)"/></g><g fi:class="KUsePattern"><pattern id="pattern_L1_281" width="350" height="350" patternUnits="userSpaceOnUse"><use xlink:href="#L1_281" x="-350" y="-350"/><use xlink:href="#L1_281" x="0" y="-350"/><use xlink:href="#L1_281" x="350" y="-350"/><use xlink:href="#L1_281" x="-350" y="0"/><use xlink:href="#L1_281" x="0" y="0"/><use xlink:href="#L1_281" x="350" y="0"/><use xlink:href="#L1_281" x="-350" y="350"/><use xlink:href="#L1_281" x="0" y="350"/><use xlink:href="#L1_281" x="350" y="350"/></pattern><rect x="0" y="0" width="100%" height="100%" fill="url(#pattern_L1_281)"/></g><g fi:class="KUsePattern"><pattern id="pattern_L1_282" width="350" height="350" patternUnits="userSpaceOnUse"><use xlink:href="#L1_282" x="-350" y="-350"/><use xlink:href="#L1_282" x="0" y="-350"/><use xlink:href="#L1_282" x="350" y="-350"/><use xlink:href="#L1_282" x="-350" y="0"/><use xlink:href="#L1_282" x="0" y="0"/><use xlink:href="#L1_282" x="350" y="0"/><use xlink:href="#L1_282" x="-350" y="350"/><use xlink:href="#L1_282" x="0" y="350"/><use xlink:href="#L1_282" x="350" y="350"/></pattern><rect x="0" y="0" width="100%" height="100%" fill="url(#pattern_L1_282)"/></g><g fi:class="KUsePattern"><pattern id="pattern_L1_283" width="350" height="350" patternUnits="userSpaceOnUse"><use xlink:href="#L1_283" x="-350" y="-350"/><use xlink:href="#L1_283" x="0" y="-350"/><use xlink:href="#L1_283" x="350" y="-350"/><use xlink:href="#L1_283" x="-350" y="0"/><use xlink:href="#L1_283" x="0" y="0"/><use xlink:href="#L1_283" x="350" y="0"/><use xlink:href="#L1_283" x="-350" y="350"/><use xlink:href="#L1_283" x="0" y="350"/><use xlink:href="#L1_283" x="350" y="350"/></pattern><rect x="0" y="0" width="100%" height="100%" fill="url(#pattern_L1_283)"/></g></svg>