<?xml version="1.0" encoding="iso-8859-1"?>
<!-- Generator: Adobe Illustrator 19.0.0, SVG Export Plug-In . SVG Version: 6.00 Build 0)  -->
<svg version="1.1" id="Capa_1" xmlns="http://www.w3.org/2000/svg" xmlns:xlink="http://www.w3.org/1999/xlink" x="0px" y="0px"
	 viewBox="0 0 502.631 502.631" fill="aliceblue" style="enable-background:new 0 0 502.631 502.631;" xml:space="preserve">
<g>
	<g>
		<g>
			<polygon points="388.381,182.164 396.637,190.404 305.101,197.556 312.253,106.02 365.757,159.524 456.269,69.012 
				433.645,46.388 365.757,114.276 285.757,34.292 270.285,232.371 468.365,216.9 411.005,159.54 			"/>
			<rect x="464.003" y="6.654" transform="matrix(0.7071 -0.7071 0.7071 0.7071 124.5707 346.049)" width="32" height="32"/>
			<polygon points="114.301,365.731 46.413,433.619 69.037,456.243 159.549,365.731 106.045,312.228 197.581,305.076 
				190.429,396.611 182.189,388.355 159.565,410.98 216.925,468.34 232.397,270.259 34.317,285.731 			"/>
			<rect x="6.627" y="463.977" transform="matrix(-0.7071 -0.7071 0.7071 -0.7071 -300.7672 835.3716)" width="32" height="32"/>
		</g>
	</g>
</g>
<g>
</g>
<g>
</g>
<g>
</g>
<g>
</g>
<g>
</g>
<g>
</g>
<g>
</g>
<g>
</g>
<g>
</g>
<g>
</g>
<g>
</g>
<g>
</g>
<g>
</g>
<g>
</g>
<g>
</g>
</svg>
